<mxfile host="app.diagrams.net" modified="2023-06-07T09:56:16.237Z" agent="Mozilla/5.0 (Macintosh; Intel Mac OS X 10_15_7) AppleWebKit/537.36 (KHTML, like Gecko) Chrome/114.0.0.0 Safari/537.36" etag="vlhs_x2EfyG61mLrjjPH" version="21.3.7" type="github">
  <diagram id="C5RBs43oDa-KdzZeNtuy" name="Page-1">
    <mxGraphModel dx="954" dy="554" grid="1" gridSize="10" guides="1" tooltips="1" connect="1" arrows="1" fold="1" page="1" pageScale="1" pageWidth="827" pageHeight="1169" math="0" shadow="0">
      <root>
        <mxCell id="WIyWlLk6GJQsqaUBKTNV-0" />
        <mxCell id="WIyWlLk6GJQsqaUBKTNV-1" parent="WIyWlLk6GJQsqaUBKTNV-0" />
        <mxCell id="TJ3Hquuwf4AhikKH04_4-8" style="edgeStyle=orthogonalEdgeStyle;rounded=0;orthogonalLoop=1;jettySize=auto;html=1;exitX=0.5;exitY=1;exitDx=0;exitDy=0;entryX=0.5;entryY=0;entryDx=0;entryDy=0;" edge="1" parent="WIyWlLk6GJQsqaUBKTNV-1" source="TJ3Hquuwf4AhikKH04_4-0" target="TJ3Hquuwf4AhikKH04_4-4">
          <mxGeometry relative="1" as="geometry" />
        </mxCell>
        <mxCell id="TJ3Hquuwf4AhikKH04_4-0" value="开始" style="rounded=1;whiteSpace=wrap;html=1;" vertex="1" parent="WIyWlLk6GJQsqaUBKTNV-1">
          <mxGeometry x="150" y="23" width="120" height="40" as="geometry" />
        </mxCell>
        <mxCell id="TJ3Hquuwf4AhikKH04_4-10" style="edgeStyle=orthogonalEdgeStyle;rounded=0;orthogonalLoop=1;jettySize=auto;html=1;exitX=0.5;exitY=1;exitDx=0;exitDy=0;entryX=0.5;entryY=0;entryDx=0;entryDy=0;" edge="1" parent="WIyWlLk6GJQsqaUBKTNV-1" source="TJ3Hquuwf4AhikKH04_4-1" target="TJ3Hquuwf4AhikKH04_4-3">
          <mxGeometry relative="1" as="geometry" />
        </mxCell>
        <mxCell id="TJ3Hquuwf4AhikKH04_4-1" value="APP中执行对应的方法" style="rounded=0;whiteSpace=wrap;html=1;" vertex="1" parent="WIyWlLk6GJQsqaUBKTNV-1">
          <mxGeometry x="125" y="170" width="170" height="40" as="geometry" />
        </mxCell>
        <mxCell id="TJ3Hquuwf4AhikKH04_4-11" value="Y" style="edgeStyle=orthogonalEdgeStyle;rounded=0;orthogonalLoop=1;jettySize=auto;html=1;exitX=0.5;exitY=1;exitDx=0;exitDy=0;" edge="1" parent="WIyWlLk6GJQsqaUBKTNV-1" source="TJ3Hquuwf4AhikKH04_4-3" target="TJ3Hquuwf4AhikKH04_4-5">
          <mxGeometry relative="1" as="geometry" />
        </mxCell>
        <mxCell id="TJ3Hquuwf4AhikKH04_4-13" style="edgeStyle=orthogonalEdgeStyle;rounded=0;orthogonalLoop=1;jettySize=auto;html=1;exitX=1;exitY=0.5;exitDx=0;exitDy=0;entryX=0.5;entryY=0;entryDx=0;entryDy=0;" edge="1" parent="WIyWlLk6GJQsqaUBKTNV-1" source="TJ3Hquuwf4AhikKH04_4-3" target="TJ3Hquuwf4AhikKH04_4-7">
          <mxGeometry relative="1" as="geometry">
            <Array as="points">
              <mxPoint x="338" y="280" />
              <mxPoint x="338" y="420" />
              <mxPoint x="210" y="420" />
            </Array>
          </mxGeometry>
        </mxCell>
        <mxCell id="TJ3Hquuwf4AhikKH04_4-14" value="N" style="edgeLabel;html=1;align=center;verticalAlign=middle;resizable=0;points=[];" vertex="1" connectable="0" parent="TJ3Hquuwf4AhikKH04_4-13">
          <mxGeometry x="-0.8417" y="-2" relative="1" as="geometry">
            <mxPoint y="55" as="offset" />
          </mxGeometry>
        </mxCell>
        <mxCell id="TJ3Hquuwf4AhikKH04_4-3" value="通过配置列表判断是否拦截" style="rhombus;whiteSpace=wrap;html=1;" vertex="1" parent="WIyWlLk6GJQsqaUBKTNV-1">
          <mxGeometry x="102.5" y="240" width="215" height="80" as="geometry" />
        </mxCell>
        <mxCell id="TJ3Hquuwf4AhikKH04_4-9" style="edgeStyle=orthogonalEdgeStyle;rounded=0;orthogonalLoop=1;jettySize=auto;html=1;exitX=0.5;exitY=1;exitDx=0;exitDy=0;entryX=0.5;entryY=0;entryDx=0;entryDy=0;" edge="1" parent="WIyWlLk6GJQsqaUBKTNV-1" source="TJ3Hquuwf4AhikKH04_4-4" target="TJ3Hquuwf4AhikKH04_4-1">
          <mxGeometry relative="1" as="geometry" />
        </mxCell>
        <mxCell id="TJ3Hquuwf4AhikKH04_4-4" value="获取配置列表" style="rounded=0;whiteSpace=wrap;html=1;" vertex="1" parent="WIyWlLk6GJQsqaUBKTNV-1">
          <mxGeometry x="125" y="100" width="170" height="40" as="geometry" />
        </mxCell>
        <mxCell id="TJ3Hquuwf4AhikKH04_4-12" style="edgeStyle=orthogonalEdgeStyle;rounded=0;orthogonalLoop=1;jettySize=auto;html=1;exitX=0.5;exitY=1;exitDx=0;exitDy=0;entryX=0.5;entryY=0;entryDx=0;entryDy=0;" edge="1" parent="WIyWlLk6GJQsqaUBKTNV-1" source="TJ3Hquuwf4AhikKH04_4-5" target="TJ3Hquuwf4AhikKH04_4-7">
          <mxGeometry relative="1" as="geometry" />
        </mxCell>
        <mxCell id="TJ3Hquuwf4AhikKH04_4-5" value="获取配置中的返回结果并返回" style="rounded=0;whiteSpace=wrap;html=1;" vertex="1" parent="WIyWlLk6GJQsqaUBKTNV-1">
          <mxGeometry x="107.5" y="360" width="205" height="40" as="geometry" />
        </mxCell>
        <mxCell id="TJ3Hquuwf4AhikKH04_4-7" value="结束" style="rounded=1;whiteSpace=wrap;html=1;" vertex="1" parent="WIyWlLk6GJQsqaUBKTNV-1">
          <mxGeometry x="150" y="456" width="120" height="40" as="geometry" />
        </mxCell>
      </root>
    </mxGraphModel>
  </diagram>
</mxfile>
